<?xml version="1.0" standalone="no"?>
<!DOCTYPE svg PUBLIC "-//W3C//DTD SVG 20010904//EN"
 "http://www.w3.org/TR/2001/REC-SVG-20010904/DTD/svg10.dtd">
<svg version="1.0" xmlns="http://www.w3.org/2000/svg"
 width="211.000000pt" height="211.000000pt" viewBox="0 0 211.000000 211.000000"
 preserveAspectRatio="xMidYMid meet">
<metadata>
Created by potrace 1.16, written by Peter Selinger 2001-2019
</metadata>
<g transform="translate(0.000000,211.000000) scale(0.100000,-0.100000)"
fill="#000000" stroke="none">
<path d="M926 2070 c-350 -56 -645 -275 -796 -592 -66 -139 -91 -243 -97 -400
-6 -154 5 -247 44 -373 72 -228 229 -435 423 -558 22 -14 29 -14 51 -3 14 7
41 15 61 19 19 3 55 15 79 26 23 12 49 21 56 21 7 0 21 4 31 9 37 21 88 43
105 46 9 2 30 13 46 24 16 12 33 21 38 21 4 0 25 11 46 25 20 14 37 22 37 18
0 -4 4 -3 8 2 8 12 94 69 104 70 8 0 56 37 93 72 13 13 28 23 32 23 5 0 19 14
33 30 14 17 29 30 34 30 8 0 152 143 191 191 11 13 40 49 65 79 25 29 50 61
55 70 6 10 23 37 39 61 60 90 186 333 186 359 0 5 5 10 11 10 5 0 8 4 5 8 -3
5 6 38 19 75 22 59 28 81 40 147 4 26 -76 129 -166 214 -135 127 -294 213
-474 257 -93 23 -308 33 -399 19z"/>
</g>
</svg>
