<?xml version="1.0" standalone="no"?>
<!DOCTYPE svg PUBLIC "-//W3C//DTD SVG 20010904//EN"
 "http://www.w3.org/TR/2001/REC-SVG-20010904/DTD/svg10.dtd">
<svg version="1.0" xmlns="http://www.w3.org/2000/svg"
 width="225.000000pt" height="220.000000pt" viewBox="0 0 225.000000 220.000000"
 preserveAspectRatio="xMidYMid meet">
<metadata>
Created by potrace 1.16, written by Peter Selinger 2001-2019
</metadata>
<g transform="translate(0.000000,220.000000) scale(0.100000,-0.100000)"
fill="#000000" stroke="none">
<path d="M925 2180 c-170 -35 -292 -84 -430 -175 -76 -50 -250 -222 -298 -297
-295 -453 -254 -1000 104 -1401 100 -112 266 -226 410 -282 122 -48 139 -32
139 128 l0 109 -79 -7 c-93 -8 -187 12 -237 50 -18 14 -48 56 -70 102 -27 55
-58 97 -102 140 -35 34 -61 67 -57 72 3 6 25 11 47 11 61 0 117 -38 175 -118
61 -83 113 -113 198 -113 89 0 120 14 134 64 7 23 24 59 37 80 l24 37 -28 0
c-46 0 -176 36 -233 65 -112 58 -197 169 -230 305 -8 31 -14 104 -13 170 1
130 20 196 78 273 28 36 31 47 23 68 -14 34 -13 166 2 216 6 24 20 47 30 53
28 15 122 -14 219 -66 l83 -45 77 17 c102 21 301 21 405 -1 l78 -16 57 35 c71
43 143 71 204 80 l47 7 15 -52 c18 -59 21 -184 6 -224 -8 -22 -5 -33 24 -76
60 -87 79 -150 79 -269 0 -241 -84 -397 -257 -480 -65 -30 -170 -60 -218 -60
-34 0 -34 0 -4 -45 37 -54 46 -118 46 -320 0 -249 4 -252 193 -162 238 114
412 285 531 523 45 90 96 244 96 290 0 12 5 26 10 29 6 4 10 75 10 180 0 105
-4 176 -10 180 -5 3 -10 14 -10 24 0 11 -11 58 -25 106 -100 345 -359 623
-693 745 -188 69 -405 87 -587 50z"/>
</g>
</svg>
